<?xml version="1.0" encoding="utf-8"?>
<!-- Generator: Adobe Illustrator 19.1.0, SVG Export Plug-In . SVG Version: 6.00 Build 0)  -->
<svg version="1.1" id="Layer_1" xmlns="http://www.w3.org/2000/svg" xmlns:xlink="http://www.w3.org/1999/xlink" x="0px" y="0px"
	 viewBox="-2410 29.4 444.7 302.6" style="enable-background:new -2410 29.4 444.7 302.6;" xml:space="preserve">
<style type="text/css">
	.st0{fill:#343333;}
	.st1{fill:#FFFFFF;}
</style>
<path class="st0" d="M-2350.3,266.3v-213h325.3v213h22.4V51.7c0-12.3-10-22.3-22.3-22.3h-325.6c-12.3,0-22.3,10-22.3,22.3l0,214.6
	H-2350.3z"/>
<path class="st0" d="M-1966.2,292.3c-0.9-2.3-3.4-4.2-7.2-4.2h-428.5c-3.6-0.1-6,1.9-7,4.1c-1,2.3-1.1,4.8-1.1,7.1V311
	c0,11.5,10.4,20.9,23.2,21h398.2c12.8,0,23.2-9.4,23.2-21h0v-11.7C-1965.3,297.1-1965.3,294.6-1966.2,292.3z"/>
<path class="st1" d="M-2146.2,312.6h-83c-3.8,0-7-3.1-7-7c0-3.8,3.1-7,7-7h83c3.9,0,7,3.1,7,7
	C-2139.2,309.4-2142.3,312.6-2146.2,312.6z"/>
<path class="st1" d="M-2007.7,321.3c-6.9,0-12.4-5.6-12.4-12.4c0-6.9,5.6-12.4,12.4-12.4c6.9,0,12.4,5.5,12.4,12.4
	C-1995.3,315.8-2000.9,321.3-2007.7,321.3z"/>
</svg>
