<?xml version="1.0" encoding="iso-8859-1"?>
<!-- Generator: Adobe Illustrator 16.0.0, SVG Export Plug-In . SVG Version: 6.00 Build 0)  -->
<!DOCTYPE svg PUBLIC "-//W3C//DTD SVG 1.1//EN" "http://www.w3.org/Graphics/SVG/1.1/DTD/svg11.dtd">
<svg xmlns="http://www.w3.org/2000/svg" xmlns:xlink="http://www.w3.org/1999/xlink" version="1.1" id="Capa_1" x="0px" y="0px" width="512px" height="512px" viewBox="0 0 612 612" style="enable-background:new 0 0 612 612;" xml:space="preserve">
<g>
	<g>
		<path d="M0,486.818c0,27.818,27.011,27.818,27.011,27.818h557.087c0,0,27.901,0,27.901-27.818S584.099,459,584.099,459H27.011    C27.011,459,0,459,0,486.818z M236.455,472.908h111.273c0,0,13.909,0,13.909,13.91c0,13.908-13.909,13.908-13.909,13.908H236.455    c0,0-13.909,0-13.909-13.908C222.545,472.908,236.455,472.908,236.455,472.908z" fill="#FFFFFF"/>
		<path d="M584.182,431.182V153c0-55.636-55.636-55.636-55.636-55.636H83.455c0,0-55.636,0-55.636,55.636v278.182h27.818h2.532    l-2.532-278.266c0-25.203,30.044-27.735,30.044-27.735h440.083c-0.027,0,30.6,2.532,30.6,27.735v278.266H584.182z" fill="#FFFFFF"/>
	</g>
</g>
<g>
</g>
<g>
</g>
<g>
</g>
<g>
</g>
<g>
</g>
<g>
</g>
<g>
</g>
<g>
</g>
<g>
</g>
<g>
</g>
<g>
</g>
<g>
</g>
<g>
</g>
<g>
</g>
<g>
</g>
</svg>
