<?xml version="1.0" encoding="utf-8"?>
<!-- Svg Vector Icons : http://www.onlinewebfonts.com/icon -->
<!DOCTYPE svg PUBLIC "-//W3C//DTD SVG 1.1//EN" "http://www.w3.org/Graphics/SVG/1.1/DTD/svg11.dtd">
<svg version="1.1" xmlns="http://www.w3.org/2000/svg" xmlns:xlink="http://www.w3.org/1999/xlink" x="0px" y="0px" viewBox="0 0 1000 1000" enable-background="new 0 0 1000 1000" xml:space="preserve">
<metadata> Svg Vector Icons : http://www.onlinewebfonts.com/icon </metadata>
<g><g><path d="M825.3,949.2H439.5h-337c10.4,20.6,30.8,40.8,70.8,40.8h735c81.7,0,81.7-84.2,81.7-84.2v-485c0,0,0-84.2-81.7-84.2H704.2v40.8h121.1c42.3,0,42.3,45.4,42.3,45.4v480.9C867.5,903.8,867.5,949.2,825.3,949.2z M928.5,632.7c16.9,0,30.6,14.2,30.6,31.6c0,17.5-13.7,31.6-30.6,31.6s-30.6-14.2-30.6-31.6C897.9,646.9,911.6,632.7,928.5,632.7z"/><path d="M579.2,10h-485c0,0-84.2,0-84.2,81.7v735c0,81.7,84.2,81.7,84.2,81.7h485.1c0,0,84.2,0,84.2-81.7v-490v-245C663.3,10,579.2,10,579.2,10z M335.6,877.5c-17.5,0-31.6-13.7-31.6-30.6s14.2-30.6,31.6-30.6c17.5,0,31.6,13.7,31.6,30.6C367.3,863.8,353.1,877.5,335.6,877.5z M622.5,743.6c0,42.2-45.4,42.2-45.4,42.2H96.2c0,0-45.4,0-45.4-42.2V93.1c0-42.3,45.4-42.3,45.4-42.3h480.9c0,0,45.4,0,45.4,42.3V743.6z"/></g><g></g><g></g><g></g><g></g><g></g><g></g><g></g><g></g><g></g><g></g><g></g><g></g><g></g><g></g><g></g></g>
</svg>